REM MD5 424a4ba7ee95fda2b9c9484ea14dcdc2
FILE "SuperLite 1500 Series - Wizard's Harmony 2 (Japan).bin" BINARY
  TRACK 01 MODE2/2352
    INDEX 01 00:00:00
  TRACK 02 AUDIO
    INDEX 00 41:16:48
    INDEX 01 41:18:48
  TRACK 03 AUDIO
    INDEX 00 44:29:72
    INDEX 01 44:31:72
  TRACK 04 AUDIO
    INDEX 00 47:23:01
    INDEX 01 47:25:01
REM LEADOUT 52:10:28
